<svg xmlns="http://www.w3.org/2000/svg" viewBox="0 0 256 256"><defs><style>.cls-3{fill:#ffcd29}.cls-4{fill:#e9e9ea}.cls-5{fill:#ea4647}.cls-6{fill:#55acd5}.cls-7{fill:#231f20}</style></defs><g id="Layer_6"><path style="fill:#f9d0b4" d="m150.831 134.11-1.086 34.262 29.13-18.071-28.044-16.191z"/><path style="fill:#6d6c6b" d="m164.371 159.299-14.081-8.129-.545 17.202 14.626-9.073z"/><path class="cls-3" transform="rotate(30 178.544 102.301)" d="M170.447 60.9h16.191v82.804h-16.191z"/><path class="cls-3" transform="rotate(-60 192.565 110.398)" d="M151.163 102.302h82.804v16.191h-82.804z"/><path class="cls-4" d="M225.789 68.145 198.522 52.4a5.9 5.9 0 1 0-5.9 10.221l27.267 15.742a5.9 5.9 0 1 0 5.9-10.221z"/><path class="cls-4" d="m231.69 57.925-27.267-15.743a5.9 5.9 0 1 0-5.9 10.221l27.267 15.742a5.9 5.9 0 1 0 5.9-10.221z"/><path class="cls-5" d="M227.764 33.24a16.191 16.191 0 0 0-22.117 5.926L204.012 42c.136.065.278.108.411.186l27.267 15.739c.133.077.241.178.366.264l1.634-2.831a16.191 16.191 0 0 0-5.926-22.118z"/><path class="cls-6" d="m218.945 80.9-40.07 69.4-14.5 9-12.1 7.5-2.529 1.569.545-17.2.54-17.06 41.4-71.711.389.224a5.9 5.9 0 0 1 5.9-10.221 5.834 5.834 0 0 1-2.089-2.091c-.395-.372-.768-.757-1.17-1.124-39.86-36.346-101.827-35.9-141.2.968A104.171 104.171 0 0 0 35.893 179.85a6.5 6.5 0 0 1 .275 6.082L18.276 224.4a6.585 6.585 0 0 0 8.748 8.749l38.469-17.892a6.679 6.679 0 0 1 6.256.38A104.149 104.149 0 0 0 218.945 80.9z"/><path class="cls-7" d="M100.039 86.678H67.213a2.5 2.5 0 0 0 0 5h32.826a2.5 2.5 0 1 0 0-5zM153.324 102.517H67.213a2.5 2.5 0 1 0 0 5h86.111a2.5 2.5 0 0 0 0-5zM144.18 118.356H67.213a2.5 2.5 0 0 0 0 5h76.967a2.5 2.5 0 0 0 0-5zM136.446 134.195H67.213a2.5 2.5 0 1 0 0 5h69.232a2.5 2.5 0 0 0 0-5zM135.987 150.033H67.213a2.5 2.5 0 1 0 0 5h68.773a2.5 2.5 0 0 0 0-5zM135.442 165.872H67.213a2.5 2.5 0 1 0 0 5h68.229a2.5 2.5 0 0 0 0-5zM208.67 69.848a2.5 2.5 0 0 0-1.17-1.518l-14.022-8.1a2.5 2.5 0 0 0-3.415.915l-41.4 71.71a2.5 2.5 0 0 0 .915 3.415l14.022 8.1a2.5 2.5 0 0 0 1.25.335 2.5 2.5 0 0 0 2.165-1.25l41.4-71.71a2.5 2.5 0 0 0 .255-1.897zm-44.732 68.942-9.692-5.6 38.9-67.38 9.692 5.6z"/><path class="cls-7" d="M221.527 76.426 207.5 68.33a2.5 2.5 0 0 0-3.415.915l-41.4 71.71a2.5 2.5 0 0 0 .915 3.415l14.022 8.1a2.5 2.5 0 0 0 3.415-.915l41.4-71.71a2.5 2.5 0 0 0-.91-3.419zm-43.567 70.46-9.692-5.6 38.9-67.38 9.692 5.6z"/><path class="cls-7" d="m227.039 65.98-27.267-15.742a8.4 8.4 0 1 0-8.4 14.551l27.267 15.742a8.4 8.4 0 1 0 8.4-14.551zm-1.255 8.976a3.4 3.4 0 0 1-4.646 1.245l-27.266-15.742a3.4 3.4 0 0 1 3.4-5.891l27.267 15.742a3.4 3.4 0 0 1 1.245 4.646z"/><path class="cls-7" d="m232.94 55.76-27.267-15.743a8.4 8.4 0 1 0-8.4 14.551l27.266 15.742a8.4 8.4 0 1 0 8.4-14.551zm-1.255 8.976a3.4 3.4 0 0 1-4.646 1.245l-27.267-15.743a3.4 3.4 0 0 1 3.4-5.891L230.44 60.09a3.405 3.405 0 0 1 1.245 4.646z"/><path class="cls-7" d="M229.014 31.075a18.712 18.712 0 0 0-25.532 6.841l-1.634 2.831a2.5 2.5 0 0 0 1.083 3.5c.09.043.182.082.311.136l27.143 15.67c.086.066.173.132.265.195a2.5 2.5 0 0 0 3.576-.814l1.634-2.831a18.712 18.712 0 0 0-6.846-25.528zm2.512 23.032-.362.627-23.714-13.691.362-.626a13.691 13.691 0 0 1 23.714 13.691zM180.125 148.136l-28.044-16.191a2.5 2.5 0 0 0-3.749 2.086l-1.085 34.262a2.5 2.5 0 0 0 3.816 2.2l29.129-18.071a2.5 2.5 0 0 0-.068-4.29zm-27.733 15.653.806-25.425 20.811 12.015z"/><path class="cls-7" d="M165.621 157.134 151.541 149a2.5 2.5 0 0 0-3.749 2.086l-.545 17.2a2.5 2.5 0 0 0 3.816 2.2l14.625-9.073a2.5 2.5 0 0 0-.068-4.29zm-13.229 6.654.265-8.366 6.847 3.954z"/><path class="cls-7" d="M221.2 79.809a2.5 2.5 0 0 0-4.416-.162l-39.756 68.86-24.632 15.281.918-28.972 40.374-69.929a2.5 2.5 0 0 0 .188-4.429 3.4 3.4 0 1 1 3.4-5.89 2.5 2.5 0 0 0 2.5-4.331 3.342 3.342 0 0 1-1.193-1.208 2.52 2.52 0 0 0-.434-.539c-.157-.147-.31-.3-.463-.447a23.077 23.077 0 0 0-.734-.7c-40.779-37.184-104.293-36.75-144.595.991a106.67 106.67 0 0 0-18.6 132.807 3.985 3.985 0 0 1 .151 3.738l-17.899 38.466a9.106 9.106 0 0 0 8.207 12.934 9.146 9.146 0 0 0 3.863-.864l38.47-17.891a4.185 4.185 0 0 1 3.917.258A106.649 106.649 0 0 0 221.2 79.809zm-24.132 118.3a101.471 101.471 0 0 1-124.034 15.383 9.18 9.18 0 0 0-8.594-.5l-38.47 17.89a4.086 4.086 0 0 1-5.427-5.428l17.893-38.468a8.978 8.978 0 0 0-.4-8.423 101.689 101.689 0 0 1 154.18-128.748 8.408 8.408 0 0 0-3.133 13.041l-40.417 70a2.493 2.493 0 0 0-.333 1.171l-1.085 34.262a2.5 2.5 0 0 0 3.816 2.2l29.129-18.07a2.5 2.5 0 0 0 .847-.875l37.641-65.2a101.744 101.744 0 0 1-21.618 111.77z"/><path class="cls-5" d="M210.2 12.869h-1.845v-1.845a2.5 2.5 0 1 0-5 0v1.845h-1.845a2.5 2.5 0 0 0 0 5h1.845v1.844a2.5 2.5 0 0 0 5 0v-1.844h1.845a2.5 2.5 0 0 0 0-5z"/><path class="cls-6" d="M182.764 1.978a2.593 2.593 0 0 0-.14-.47 2.614 2.614 0 0 0-.23-.43 2.242 2.242 0 0 0-.31-.38 2.594 2.594 0 0 0-3.54 0 2.925 2.925 0 0 0-.311.38 3.634 3.634 0 0 0-.229.43 2.517 2.517 0 0 0-.14.47 2.685 2.685 0 0 0-.051.49 2.7 2.7 0 0 0 .051.49 2.438 2.438 0 0 0 .14.46 2.972 2.972 0 0 0 .229.43 2.372 2.372 0 0 0 .311.38 2.487 2.487 0 0 0 3.54 0 1.9 1.9 0 0 0 .31-.38 2.253 2.253 0 0 0 .23-.43 2.512 2.512 0 0 0 .14-.46 2.039 2.039 0 0 0 .05-.49 2.033 2.033 0 0 0-.05-.49zM95.235 238.788a2.415 2.415 0 0 0-.37-.9 2.2 2.2 0 0 0-.31-.38 2.594 2.594 0 0 0-3.54 0 2.861 2.861 0 0 0-.311.38 3.6 3.6 0 0 0-.229.43 2.512 2.512 0 0 0-.14.47 2.392 2.392 0 0 0 0 .98 2.438 2.438 0 0 0 .14.46 3 3 0 0 0 .229.43 2.368 2.368 0 0 0 .311.38 2.486 2.486 0 0 0 3.54 0 1.9 1.9 0 0 0 .31-.38 2.268 2.268 0 0 0 .23-.43 2.512 2.512 0 0 0 .14-.46 2.438 2.438 0 0 0 0-.98z"/><path d="M240.812 91.156a2.406 2.406 0 0 0-.37-.9 2.2 2.2 0 0 0-.31-.38 2.594 2.594 0 0 0-3.54 0 2.861 2.861 0 0 0-.311.38 3.628 3.628 0 0 0-.229.43 2.528 2.528 0 0 0-.14.47 2.389 2.389 0 0 0 0 .98 2.417 2.417 0 0 0 .14.46 2.977 2.977 0 0 0 .229.43 2.368 2.368 0 0 0 .311.38 2.486 2.486 0 0 0 3.54 0 1.9 1.9 0 0 0 .31-.38 2.257 2.257 0 0 0 .23-.43 2.489 2.489 0 0 0 .14-.46 2.435 2.435 0 0 0 0-.98z" style="fill:#6dcc6d"/><path class="cls-3" d="M75.413 247.469a10.108 10.108 0 0 1-8.022-8.022.18.18 0 0 0-.356 0 10.108 10.108 0 0 1-8.022 8.022.18.18 0 0 0 0 .356 10.108 10.108 0 0 1 8.022 8.022.18.18 0 0 0 .356 0 10.109 10.109 0 0 1 8.022-8.022.18.18 0 0 0 0-.356z"/></g></svg>