<svg xmlns="http://www.w3.org/2000/svg" viewBox="0 0 48 48"><g><path d="M43 24c0 12.36-11.77 21-22.23 18.72a19 19 0 0 1-12.08-30c.3 0-1.08.06 3.81-.25l-1.93-1.93C22.49-1.35 43 7.07 43 24z" style="fill:#6fabe6"/><path d="M47 25.47A23 23 0 0 1 1 24h4a19 19 0 0 0 34.69 10.7c6-8.37 3.84-21-5.84-26.95a19 19 0 0 0-23.28 2.82l1.93 1.93L5 13c.43-3 .75-5.25 1-7l1.74 1.74C22.58-7.1 48.28 4.24 47 25.47z" style="fill:#db5669"/><path d="M41 24a19 19 0 0 1-9.54 16.47 19 19 0 0 1-18.7-5.9c.77.61-.21.43 19.24.43a2 2 0 0 0 2-2V19a2 2 0 0 0-2-2H14a2 2 0 0 0-2 2c0 15.15-.1 14.31.24 15a18.94 18.94 0 0 1-1.76-21.32l2-.13-1.2-1.2a19 19 0 0 1 3.69-4C27.75.48 41 11.27 41 24z" style="fill:#82bcf4"/><path d="M47 25.47A23.12 23.12 0 0 1 33.32 45 23 23 0 0 0 12.78 3.93C28.32-4.85 48.11 7 47 25.47z" style="fill:#f26674"/><path d="M20 15h14a2 2 0 0 1 2 2v14a2 2 0 0 1-2 2H20V15z" style="fill:#f6ccaf"/><path d="M16 15h4v18h-4a2 2 0 0 1-2-2V17a2 2 0 0 1 2-2z" style="fill:#edb996"/><path style="fill:#edebf2" d="M26 15h4v4h-4z"/><path d="M26 30h-2a1 1 0 0 1 0-2h2a1 1 0 0 1 0 2z" style="fill:#7c7d7d"/></g></svg>