<svg xmlns="http://www.w3.org/2000/svg" xml:space="preserve" width="2048" height="2048" style="shape-rendering:geometricPrecision;text-rendering:geometricPrecision;image-rendering:optimizeQuality;fill-rule:evenodd;clip-rule:evenodd"><defs><clipPath id="id0"><path d="M1024-.001c565.539 0 1024 458.462 1024 1024 0 565.539-458.462 1024-1024 1024-565.539 0-1024-458.462-1024-1024 0-565.54 458.462-1024 1024-1024z"/></clipPath><style>.fil1{fill:#4fc3f7}.fil3{fill:#981b1c;fill-rule:nonzero}</style></defs><g id="Layer_x0020_1"><path d="M1024-.001c565.539 0 1024 458.462 1024 1024 0 565.539-458.462 1024-1024 1024-565.539 0-1024-458.462-1024-1024 0-565.54 458.462-1024 1024-1024z" style="fill:#81d4fa"/><g style="clip-path:url(#id0)"><g id="_289347416"><path id="_2909600641" class="fil1" d="M1069.77 488.211 2205.65 1624.09l1.99 2.27 1.96 2.32 1.94 2.38 1.91 2.43 1.9 2.47 1.87 2.52 1.86 2.55 1.85 2.58 1.83 2.61 1.82 2.62 1.82 2.64 1.81 2.65 1.8 2.65L1094.13 520.896l-1.81-2.65-1.8-2.647-1.82-2.638-1.82-2.624-1.83-2.606-1.85-2.581-1.86-2.552-1.87-2.517-1.9-2.475-1.91-2.431-1.94-2.379-1.96-2.323z"/><path id="_290960184" class="fil1" d="M1479.25 919.248 2615.13 2055.13l-.08 2.91-.25 2.84-.4 2.77-.55 2.72-.71 2.65-.84 2.59-.98 2.53-1.11 2.48-1.23 2.43-1.35 2.38-1.47 2.33-1.58 2.28-1.68 2.24-1.78 2.19-1.88 2.16-1.96 2.12-2.04 2.08-2.13 2.05-2.19 2.02-2.26 1.99-2.33 1.96-2.38 1.94-2.43 1.91-2.47 1.9-2.52 1.87-2.55 1.86-2.58 1.85-2.61 1.83-2.62 1.82-2.64 1.82-2.65 1.8-2.65 1.81L1422.35 989.377l2.65-1.805 2.65-1.809 2.64-1.814 2.62-1.823 2.61-1.833 2.58-1.843 2.55-1.859 2.52-1.876 2.47-1.893 2.43-1.915 2.38-1.937 2.32-1.962 2.27-1.99 2.19-2.017 2.12-2.051 2.05-2.083 1.96-2.118 1.88-2.157 1.78-2.196 1.68-2.239 1.58-2.281 1.47-2.33 1.35-2.376 1.23-2.428 1.11-2.479.98-2.536.84-2.592.7-2.65.56-2.713.4-2.774.25-2.842z"/><path id="_290962104" class="fil1" d="M1422.35 989.377 2558.23 2125.26l-3.13 2.13-3.1 2.13-3.06 2.11-2.99 2.09-2.9 2.06-2.8 2.03-2.66 2-2.51 1.95-2.34 1.91-2.14 1.85-1.93 1.79-1.7 1.73-1.44 1.65-1.16 1.58-.86 1.5-.54 1.41L1387.09 1019.3l.54-1.41.86-1.5 1.16-1.58 1.44-1.65 1.7-1.73 1.93-1.79 2.14-1.85 2.34-1.91 2.51-1.95 2.66-2 2.8-2.033 2.9-2.063 2.99-2.091 3.06-2.109 3.1-2.124z"/><path id="_290962536" class="fil1" d="m1387.09 1019.3 1135.88 1135.88-.16.73-.1.79-.04.86.03.91.08.96.13 1.02.18 1.08.24 1.12.28 1.17.33 1.21.38 1.26.41 1.31.46 1.34.5 1.38.53 1.41.57 1.45.59 1.48.63 1.51.66 1.54.68 1.56.71 1.59.73 1.61.75 1.63.76 1.64.79 1.67.79 1.67.81 1.69.82 1.7.83 1.7.83 1.71.83 1.71.84 1.72-1135.88-1135.88-.84-1.72-.83-1.71-.84-1.71-.82-1.71-.82-1.69-.81-1.69-.8-1.68-.78-1.66-.77-1.64-.74-1.63-.73-1.61-.71-1.59-.68-1.56-.66-1.54-.63-1.51-.6-1.48-.56-1.45-.53-1.42-.5-1.37-.46-1.35-.41-1.3-.38-1.26-.33-1.21-.28-1.17-.24-1.13-.18-1.07-.14-1.02-.07-.97-.03-.91.04-.85.1-.79z"/><path id="_290962488" class="fil1" d="m1402.96 1063.43 1135.88 1135.88 1.37 2.8 1.37 2.81 1.35 2.8 1.34 2.8 1.31 2.8 1.29 2.79 1.25 2.78 1.22 2.78 1.17 2.78 1.12 2.76 1.07 2.76 1 2.75.95 2.75.87 2.73.79 2.72.71 2.71.63 2.7.53 2.68.43 2.67.34 2.66.22 2.65.1 2.63-.01 2.61-.14 2.59-.27 2.58-.4 2.56-.55 2.55-.69 2.52-.85 2.5-1 2.48-1.17 2.46-1.33 2.44-1135.88-1135.88 1.33-2.44 1.17-2.46 1-2.48.85-2.5.69-2.53.55-2.54.4-2.56.27-2.58.14-2.59.01-2.62-.11-2.63-.22-2.64-.33-2.66-.43-2.67-.53-2.69-.63-2.69-.71-2.71-.79-2.73-.88-2.73-.94-2.74-1-2.75-1.07-2.76-1.12-2.76-1.17-2.78-1.22-2.78-1.25-2.79-1.29-2.79-1.31-2.79-1.34-2.8-1.35-2.8-1.37-2.81z"/><path id="_290962560" class="fil1" d="m1416.98 1149.03 1135.88 1135.88-1.48 2.37-1.58 2.22-1.68 2.1-1.78 1.96-1.87 1.84-1.96 1.72-2.05 1.6-2.13 1.5-2.21 1.39-2.29 1.28-2.36 1.19-2.43 1.09-2.49 1.01-2.56.92-2.62.84-2.67.77-2.73.69-2.78.63-2.82.57-2.87.51-2.91.45-2.94.41-2.98.36-3 .32-3.03.29-3.06.25-3.07.23-3.09.21-3.11.19-3.11.18-3.12.16-3.12.16-1135.88-1135.88 3.12-.16 3.12-.17 3.11-.17 3.1-.19 3.1-.21 3.07-.23 3.06-.25 3.03-.29 3-.32 2.98-.36 2.94-.41 2.91-.46 2.87-.51 2.82-.56 2.78-.63 2.73-.7 2.67-.76 2.62-.84 2.56-.92 2.49-1.01 2.43-1.09 2.36-1.19 2.29-1.29 2.21-1.38 2.13-1.5 2.05-1.6 1.96-1.72 1.87-1.84 1.77-1.97 1.69-2.09 1.58-2.23z"/><path id="_290962608" class="fil1" d="m1335.08 1178.44 1135.88 1135.88-.91.05-.91.05-.91.05-.9.04-.91.05-.9.05-.9.05-.9.05-.9.05-.9.05-.89.05-.88.05-.89.05-.88.06-.87.06-.87.05-1135.88-1135.88.87-.06.87-.05.88-.06.89-.05.88-.05.89-.06.9-.05.9-.05.89-.05.91-.04.9-.05.9-.05.91-.05.91-.04.91-.05z"/><path id="_290962632" class="fil1" d="m1320.76 1179.25 1135.88 1135.88 140.53 245.92-1135.88-1135.88z"/><path id="_290961888" class="fil1" d="m1461.36 1425.12 1135.88 1135.89 1.08 2.06.85 2.12.62 2.17.4 2.19.18 2.2-.04 2.2-.24 2.17-.45 2.14-.65 2.09-.84 2.01-1.04 1.94-1.23 1.83-1.42 1.72-1.6 1.59-1.77 1.44-1.95 1.28-1135.88-1135.88 1.95-1.28 1.77-1.44 1.6-1.59 1.41-1.72 1.23-1.83 1.05-1.94.84-2.02.65-2.08.45-2.14.24-2.17.04-2.2-.19-2.2-.39-2.19-.63-2.17-.84-2.12z"/><path id="_290962296" class="fil1" d="m1453.26 1456.28 1135.88 1135.88-.84.47-.85.43-.86.39-.87.36-.87.31-.89.28-.89.24-.89.2-.9.17-.9.12-.91.1-.9.05-.9.02-.9-.02-.9-.05-.89-.09L1439.1 1459.26l.89.09.9.05.9.02.9-.02.9-.06.91-.09.9-.13.9-.16.89-.2.89-.24.88-.28.88-.32.87-.35.86-.39.85-.43z"/><path id="_290963376" class="fil1" d="m1439.1 1459.26 1135.88 1135.88-132.28-11.03-1135.88-1135.88z"/><path id="_290962968" class="fil1" d="m1077.69 1340.74 1135.88 1135.88-1.37 1.76-1.39 1.73-1.4 1.71-1.41 1.67-1.43 1.65-1.44 1.61-1.46 1.57-1.47 1.54-1.49 1.5-1.51 1.46-1.53 1.41-1.55 1.37-1.56 1.32-1.59 1.27-1.61 1.23-1.63 1.16-1.66 1.11-1.68 1.06-1.7.99-1.73.94-1.76.87-1.79.8-1.81.74-1.84.67-1.87.6-1.91.52-1.93.45-1.97.37-2 .3-2.03.21-2.07.13-2.1.04L1024 1374.5l2.1-.05 2.07-.12 2.03-.22 2-.29 1.97-.37 1.93-.45 1.91-.52 1.87-.6 1.84-.67 1.81-.74 1.79-.8 1.76-.88 1.73-.93 1.7-.99 1.68-1.06 1.66-1.11 1.63-1.17 1.61-1.22 1.59-1.27 1.56-1.32 1.55-1.37 1.53-1.41 1.5-1.46 1.5-1.5 1.47-1.54 1.46-1.57 1.44-1.62 1.42-1.64 1.42-1.68 1.4-1.7 1.39-1.74z"/><path id="_290963400" class="fil1" d="M1306.82 1448.23 2442.7 2584.11l-56.56 122.52-1135.89-1135.88z"/><path id="_290962944" class="fil1" d="M741.184 1448.23 1877.06 2584.11l-132.27 11.03L608.905 1459.26z"/><path id="_290963088" class="fil1" d="M731.092 1179.53 1866.97 2315.41l-1.08-.08-1.09-.08-1.11-.08-1.11-.07-1.12-.07-1.13-.07-1.13-.07-1.14-.07-1.14-.07-1.15-.06-1.16-.06-1.15-.06-1.16-.06-1.17-.07-1.16-.06-1.16-.06L712.926 1178.44l1.164.06 1.163.06 1.162.06 1.16.06 1.157.07 1.154.06 1.149.06 1.146.07 1.14.06 1.132.07 1.128.07 1.119.07 1.112.08 1.102.08 1.094.08z"/><path id="_290962848" class="fil1" d="M712.926 1178.44 1848.81 2314.32l-3.13-.16-3.12-.16-3.11-.18-3.1-.19-3.09-.21-3.08-.23-3.05-.25-3.04-.29-3-.32-2.98-.36-2.94-.41-2.91-.45-2.86-.51-2.83-.57-2.77-.63-2.73-.69-2.68-.77-2.62-.84-2.56-.92-2.49-1.01-2.43-1.09-2.36-1.19-2.29-1.28-2.21-1.39-2.13-1.49-2.04-1.61-1.96-1.72L639.414 1159.52l1.961 1.72 2.048 1.6 2.129 1.5 2.21 1.38 2.287 1.29 2.359 1.19 2.43 1.09 2.496 1.01 2.558.92 2.618.84 2.676.77 2.728.69 2.777.63 2.824.57 2.867.5 2.907.46 2.943.41 2.976.36 3.006.32 3.031.29 3.056.25 3.074.23 3.091.21 3.104.19 3.114.17 3.119.17z"/><path id="_290963328" class="fil1" d="M625.647 989.375 1761.53 2125.26l-2.65-1.81-2.65-1.81-2.64-1.81-2.62-1.82-2.61-1.84-2.58-1.84-2.55-1.86-2.52-1.87-2.47-1.9-2.43-1.91-2.38-1.94-2.32-1.96-2.27-1.99-2.19-2.02L590.768 963l2.194 2.017 2.262 1.99 2.323 1.962 2.38 1.937 2.43 1.914 2.477 1.894 2.515 1.875 2.551 1.858 2.582 1.845 2.606 1.832 2.624 1.822 2.638 1.815 2.647 1.809z"/><path id="_290963304" class="fil1" d="M838.927 1571.01 1974.81 2706.9l-.9 1.7-1.05 1.63-1.18 1.54-1.32 1.44-1.45 1.33-1.58 1.21-1.71 1.09-1.82.94L827.914 1581.9l1.828-.94 1.705-1.09 1.58-1.21 1.453-1.33 1.319-1.45 1.184-1.53 1.044-1.63z"/><path id="_290962728" class="fil1" d="M827.914 1581.9 1963.8 2717.78l-2.17.87-2.19.63-2.22.41-2.22.18-2.21-.04-2.18-.24-2.14-.46-2.08-.66-2.01-.85-1.93-1.04-1.82-1.22-1.7-1.41L803.045 1578.07l1.704 1.4 1.822 1.23 1.924 1.04 2.011.85 2.084.66 2.14.45 2.182.25 2.209.04 2.219-.18 2.216-.41 2.196-.63z"/><path id="_290963256" class="fil1" d="M655.215 1011.43 1791.1 2147.31l-1.94-1.79-2.14-1.85-2.34-1.91-2.51-1.95-2.66-2-2.8-2.03-2.9-2.07-2.99-2.09-3.06-2.11-3.1-2.12-3.13-2.13L625.647 989.375l3.13 2.133 3.105 2.123 3.058 2.11 2.992 2.09 2.902 2.064 2.793 2.035 2.662 1.99 2.511 1.96 2.339 1.9 2.145 1.86z"/><path id="_290962920" class="fil1" d="M608.905 1459.26 1744.79 2595.14l-.9.09-.9.05-.9.02-.9-.02-.9-.05-.9-.1-.9-.12-.9-.17-.9-.2-.89-.24-.88-.28-.88-.31-.87-.36-.86-.39-.85-.43-.84-.47L594.74 1456.28l.84.47.85.43.86.39.869.35.878.32.884.28.891.24.894.2.899.16.901.13.902.09.903.06.902.02.9-.02.898-.05z"/><path id="_290963856" class="fil1" d="m594.74 1456.28 1135.88 1135.88-1.95-1.28-1.77-1.44L591.018 1453.56l1.774 1.44z"/><path id="_290963784" class="fil1" d="M972.583 1343.62 2108.46 2479.51l-133.65 227.39L838.927 1571.01z"/><path id="_290963664" class="fil1" d="m1024 1374.5 1135.88 1135.88-1.99-.04-1.97-.12-1.93-.19-1.9-.26-1.87-.34-1.85-.4-1.81-.47-1.79-.54-1.76-.61-1.73-.67-1.71-.73-1.68-.79-1.66-.84-1.63-.91-1.61-.96-1.59-1.01-1.57-1.06-1.54-1.11-1.53-1.16-1.51-1.21-1.48-1.25-1.47-1.29-1.45-1.34L984.966 1357.2l1.451 1.34 1.47 1.29 1.487 1.25 1.506 1.21 1.525 1.16 1.547 1.11 1.566 1.06 1.588 1.01 1.611.96 1.633.9 1.66.85 1.68.79 1.71.73 1.73.67 1.76.6 1.79.54 1.81.48 1.85.4 1.87.34 1.9.26 1.93.19 1.97.12z"/><path id="_290963976" class="fil1" d="m1250.29 1570.77 1135.88 1135.89-1.08 2.06-1.26 1.91-1.42 1.74-1.57 1.58-1.71 1.41-1.82 1.22-1.92 1.04-2.01.85-2.09.66-2.14.46-2.18.24-2.21.04-2.22-.18-2.21-.41-2.2-.63-2.16-.87L1220.09 1581.9l2.16.87 2.2.63 2.21.41 2.22.18 2.21-.04 2.18-.25 2.14-.45 2.08-.66 2.02-.85 1.92-1.04 1.82-1.23 1.71-1.4 1.57-1.58 1.42-1.75 1.26-1.9z"/><path id="_290963472" class="fil1" d="m1220.09 1581.9 1135.88 1135.88-1.83-.94-1.7-1.09-1.59-1.21-1.45-1.33-1135.88-1135.88 1.45 1.33 1.58 1.21 1.71 1.09z"/><path id="_290963496" class="fil1" d="M1094.13 520.896 2230.01 1656.78l2.13 3.13 2.13 3.1 2.11 3.06 2.09 2.99 2.06 2.91 2.03 2.79 2 2.66 1.95 2.51 1.91 2.34 1.85 2.15L1114.39 548.533l-1.85-2.145-1.91-2.339-1.95-2.511-2-2.662-2.03-2.793-2.06-2.902-2.09-2.992-2.11-3.058-2.13-3.105z"/><path id="_290963592" class="fil1" d="M1402.96 775.069 2538.84 1910.95l-.84 1.72-.83 1.71-.84 1.71-.82 1.7-.82 1.7-.81 1.69-.79 1.67-.79 1.66-.76 1.65-.75 1.63-.73 1.61-.71 1.59-.68 1.56-.66 1.54-.63 1.51-.59 1.48-.57 1.45-.53 1.41-.5 1.38-.46 1.34-.41 1.31-.38 1.26-.33 1.21-.28 1.17-.24 1.12-.18 1.08-.13 1.02-.08.96-.03.91.04.86.1.79.16.73L1387.09 819.198l-.16-.731-.1-.793-.04-.853.03-.909.07-.967.14-1.021.18-1.072.24-1.122.28-1.171.33-1.215.38-1.26.41-1.302.46-1.342.5-1.379.53-1.415.56-1.449.6-1.48.63-1.511.66-1.538.68-1.563.71-1.588.73-1.61.74-1.628.77-1.647.78-1.662.8-1.675.81-1.687.82-1.696.82-1.705.84-1.71.83-1.713z"/><path id="_290963568" class="fil1" d="M1265.99 536.622 2401.87 1672.5l1.61 2.05 1.49 2.13 1.39 2.21 1.28 2.29 1.19 2.36 1.09 2.43 1.01 2.49.92 2.56.84 2.62.77 2.67.69 2.73.63 2.78.57 2.83.51 2.86.45 2.91.41 2.94.36 2.98.32 3 .29 3.03.26 3.06.22 3.07.21 3.1.19 3.1.18 3.11.16 3.12.16 3.12L1283.19 608.173l-.16-3.123-.17-3.12-.17-3.113-.19-3.104-.21-3.091-.23-3.074-.25-3.056-.29-3.032-.32-3.006-.36-2.975-.41-2.943-.45-2.907-.51-2.866-.57-2.824-.63-2.778-.69-2.729-.77-2.674-.84-2.618-.92-2.56-1.01-2.495-1.09-2.43-1.19-2.359-1.29-2.286-1.38-2.21-1.5-2.131z"/><path id="_290964096" class="fil1" d="M1283.19 608.173 2419.07 1744.05l.1 1.87.1 1.86.1 1.85.1 1.85.1 1.83.11 1.82.11 1.81.12 1.78.12 1.77.13 1.73.14 1.72.14 1.68.16 1.65.16 1.61.17 1.58.19 1.54.19 1.49.21 1.44.23 1.4.23 1.34.25 1.3.27 1.23.28 1.18.31 1.11.31 1.05.34.98.35.91.38.83.4.76.41.69.44.6L1289.84 652.424l-.44-.6-.41-.683-.4-.761-.38-.836-.35-.909-.34-.981-.32-1.047-.3-1.113-.28-1.175-.27-1.234-.25-1.292-.23-1.346-.23-1.397-.21-1.446-.19-1.491-.19-1.536-.17-1.577-.17-1.614-.15-1.649-.14-1.682-.14-1.712-.13-1.739-.12-1.765-.12-1.784-.11-1.805-.11-1.821-.1-1.834-.11-1.846-.09-1.855-.1-1.859z"/><path id="_290964000" class="fil1" d="M1412.23 682.782 2548.12 1818.66l1.68 2.1 1.58 2.22 1.48 2.37L1416.98 689.464l-1.48-2.363-1.58-2.226z"/><path id="_290964240" class="fil1" d="M1416.98 689.464 2552.86 1825.35l1.33 2.44 1.17 2.46 1 2.48.85 2.5.69 2.52.55 2.54.4 2.57.27 2.57.14 2.6.01 2.61-.1 2.63-.22 2.65-.34 2.65-.43 2.68-.53 2.68-.63 2.7-.71 2.71-.79 2.72-.87 2.73-.95 2.75-1 2.75-1.07 2.76-1.12 2.76-1.17 2.78-1.22 2.78-1.25 2.78-1.29 2.79-1.31 2.8-1.34 2.8-1.35 2.8-1.37 2.81-1.37 2.8L1402.96 775.069l1.37-2.806 1.36-2.804 1.36-2.803 1.33-2.799 1.32-2.795 1.29-2.791 1.25-2.787 1.21-2.78 1.18-2.774 1.12-2.766 1.07-2.759 1-2.751.94-2.743.88-2.731.79-2.721.71-2.71.63-2.698.53-2.686.43-2.673.33-2.658.22-2.644.11-2.629-.01-2.612-.14-2.596-.27-2.58-.4-2.561-.55-2.541-.69-2.523-.85-2.503-1-2.481-1.17-2.461z"/><path id="_290964792" class="fil1" d="M1387.09 819.198 2522.97 1955.08l.54 1.41.86 1.5 1.16 1.58 1.44 1.65L1391.09 825.341l-1.44-1.656-1.16-1.579-.86-1.498z"/><path id="_290964288" class="fil1" d="M1463.36 881.748 2599.24 2017.63l1.88 2.16 1.78 2.19 1.68 2.24 1.58 2.28 1.47 2.33 1.35 2.38 1.23 2.43 1.11 2.48.98 2.53.84 2.59.71 2.65.55 2.72.4 2.77.25 2.84.08 2.91L1479.25 919.248l-.08-2.908-.25-2.842-.4-2.774-.56-2.713-.7-2.65-.84-2.592-.98-2.534-1.11-2.481-1.23-2.428-1.35-2.376-1.47-2.33-1.58-2.282-1.68-2.238-1.78-2.195z"/><path id="_289347584" class="fil1" d="M1422.35 849.12c28.264 19.244 56.896 38.738 56.896 70.128s-28.633 50.886-56.897 70.13c-16.725 11.386-33.262 22.647-35.263 29.92-2.05 7.454 6.933 25.838 15.871 44.127 14.632 29.939 29.182 59.716 14.015 85.605-15.205 25.961-48.588 27.69-81.9 29.411-4.846.25-9.69.501-14.317.81l140.528 245.915.075-.043c6.366 10.84 2.74 24.79-8.1 31.156a22.665 22.665 0 0 1-14.164 2.982l-132.28-11.031-56.562 122.517.039.026c-5.27 11.414-18.794 16.395-30.208 11.126a22.67 22.67 0 0 1-11.013-10.885l-131.38-230.28c-14.624 18.89-31.069 33.762-53.693 33.762-21.457 0-37.356-13.38-51.417-30.874l-133.656 227.391a22.66 22.66 0 0 1-11.012 10.885c-11.413 5.27-24.94.289-30.207-11.126l.038-.026-56.562-122.517-132.28 11.032a22.665 22.665 0 0 1-14.164-2.982c-10.84-6.366-14.466-20.317-8.1-31.157l.075.044 144.377-245.64c-5.752-.444-11.957-.764-18.166-1.085-33.312-1.722-66.695-3.45-81.901-29.41-15.167-25.89-.616-55.666 14.016-85.605 8.937-18.29 17.92-36.673 15.87-44.128-2-7.276-18.54-18.537-35.264-29.924-28.264-19.241-56.896-38.739-56.896-70.127 0-31.39 28.634-50.885 56.897-70.129 16.725-11.387 33.263-22.647 35.263-29.92 2.05-7.455-6.933-25.838-15.871-44.128-14.632-29.938-29.182-59.715-14.015-85.605 15.205-25.96 48.588-27.689 81.9-29.41 19.872-1.027 39.71-2.054 44.768-7.112 5.061-5.06 6.086-24.897 7.114-44.77 1.722-33.312 3.449-66.694 29.41-81.901 25.89-15.167 55.666-.615 85.605 14.016 18.29 8.938 36.673 17.921 44.128 15.87 7.276-2 18.535-18.54 29.922-35.264 19.244-28.263 38.738-56.896 70.128-56.896s50.886 28.634 70.13 56.898c11.386 16.724 22.647 33.262 29.92 35.263 7.454 2.05 25.838-6.933 44.128-15.872 29.938-14.632 59.715-29.182 85.605-14.015 25.96 15.205 27.688 48.588 29.41 81.9 1.027 19.872 2.053 39.711 7.112 44.769 5.06 5.06 24.896 6.086 44.77 7.113 33.311 1.722 66.694 3.45 81.9 29.41 15.167 25.89.616 55.666-14.015 85.605-8.938 18.29-17.921 36.673-15.871 44.128 2 7.276 18.54 18.535 35.264 29.922z"/></g></g><path d="M1024-.001c565.539 0 1024 458.462 1024 1024 0 565.539-458.462 1024-1024 1024-565.539 0-1024-458.462-1024-1024 0-565.54 458.462-1024 1024-1024z" style="fill:none"/><path class="fil3" d="m1041.43 1277.17 167.642 293.84a22.67 22.67 0 0 0 11.013 10.885c11.414 5.269 24.939.288 30.208-11.126l-20.667-9.54 20.628 9.514 56.563-122.517 132.279 11.032c4.754.557 9.72-.373 14.165-2.983 10.839-6.366 14.465-20.316 8.098-31.156l-.074.044-177.631-310.845c-6.684.3-15.65.769-21.932 1.746-1.35 8.669-1.731 22.454-2.034 28.291-1.93 37.368-4.536 79.222-40.637 100.367-35.974 21.075-73.559 3.19-107.104-13.204-5.526-2.701-19.238-9.784-27.725-12.684-5.857 6.687-14.076 19.385-17.516 24.437-7.813 11.474-15.995 23.376-25.277 33.9zM765.236 1121.44l-178.52 303.731-.074-.044c-6.368 10.84-2.742 24.79 8.098 31.157a22.665 22.665 0 0 0 14.165 2.982l132.28-11.032 56.561 122.517 20.63-9.513-20.667 9.54c5.267 11.414 18.793 16.394 30.206 11.125a22.661 22.661 0 0 0 11.013-10.885l168.533-286.726c-9.282-10.524-17.465-22.425-25.278-33.9-3.44-5.052-11.658-17.747-17.516-24.436-8.487 2.9-22.196 9.983-27.724 12.684-33.544 16.393-71.13 34.278-107.104 13.205-36.1-21.146-38.706-63-40.637-100.367-.302-5.838-.684-19.624-2.034-28.29-6.28-.979-15.248-1.45-21.932-1.749z"/><path d="M1024 463.999c31.39 0 50.886 28.634 70.13 56.897 11.386 16.725 22.647 33.263 29.92 35.263 7.454 2.05 25.838-6.933 44.127-15.871 29.939-14.632 59.716-29.182 85.606-14.015 25.96 15.205 27.688 48.588 29.41 81.9 1.027 19.872 2.053 39.71 7.112 44.768 5.06 5.061 24.896 6.086 44.77 7.114 33.311 1.722 66.694 3.449 81.9 29.41 15.167 25.89.616 55.666-14.016 85.605-8.937 18.29-17.92 36.673-15.87 44.128 2 7.276 18.54 18.535 35.264 29.922 28.264 19.244 56.896 38.738 56.896 70.128s-28.633 50.886-56.897 70.13c-16.725 11.386-33.262 22.647-35.263 29.92-2.05 7.454 6.933 25.838 15.872 44.127 14.631 29.94 29.181 59.716 14.015 85.606-15.206 25.96-48.589 27.688-81.9 29.41-19.873 1.027-39.712 2.053-44.77 7.112-5.06 5.06-6.085 24.897-7.113 44.77-1.722 33.311-3.449 66.694-29.41 81.9-25.89 15.167-55.666.616-85.605-14.014-18.29-8.939-36.673-17.922-44.128-15.872-7.276 2-18.535 18.54-29.922 35.264-19.244 28.264-38.738 56.896-70.128 56.896s-50.886-28.633-70.13-56.897c-11.386-16.724-22.647-33.262-29.92-35.263-7.454-2.05-25.838 6.933-44.127 15.872-29.939 14.631-59.716 29.181-85.606 14.016-25.96-15.207-27.688-48.59-29.41-81.901-1.027-19.872-2.053-39.711-7.112-44.769-5.06-5.06-24.896-6.086-44.77-7.114-33.311-1.722-66.694-3.448-81.9-29.41-15.167-25.889-.616-55.666 14.016-85.604 8.937-18.29 17.92-36.674 15.87-44.129-2-7.275-18.54-18.536-35.264-29.923-28.264-19.241-56.896-38.739-56.896-70.127 0-31.39 28.633-50.885 56.897-70.129 16.725-11.387 33.262-22.648 35.263-29.92 2.05-7.455-6.933-25.839-15.872-44.128-14.631-29.939-29.181-59.715-14.015-85.605 15.206-25.96 48.589-27.689 81.9-29.411 19.873-1.026 39.712-2.053 44.769-7.111 5.061-5.06 6.086-24.897 7.114-44.77 1.722-33.312 3.449-66.695 29.41-81.901 25.89-15.167 55.666-.616 85.605 14.016 18.29 8.937 36.673 17.92 44.128 15.87 7.276-2 18.535-18.54 29.922-35.264C973.116 492.631 992.61 464 1024 464z" style="fill:#c62828"/><path d="M1024 606.781c86.282 0 164.399 34.976 220.945 91.521 56.545 56.547 91.521 134.663 91.521 220.945 0 86.282-34.976 164.4-91.521 220.945-56.546 56.546-134.663 91.522-220.945 91.522-86.282 0-164.399-34.976-220.945-91.522-56.545-56.546-91.521-134.663-91.521-220.945 0-86.282 34.976-164.399 91.521-220.945 56.547-56.545 134.663-91.521 220.945-91.521z" style="fill:#b71c1c"/><path d="M1212.76 730.491c-48.306-48.306-115.042-78.184-188.758-78.184-73.716 0-140.452 29.878-188.758 78.184-48.305 48.305-78.183 115.041-78.183 188.757 0 73.715 29.878 140.452 78.183 188.758 48.306 48.305 115.042 78.183 188.758 78.183 73.716 0 140.452-29.878 188.758-78.183 48.305-48.306 78.183-115.043 78.183-188.758 0-73.716-29.878-140.452-78.183-188.757z" style="fill:#d32f2f"/><path d="M1197.4 847.24c8.888-8.888 8.888-23.3 0-32.187-8.888-8.888-23.3-8.888-32.187 0L974.845 1005.42l-92.054-92.053c-8.888-8.888-23.3-8.888-32.188 0-8.888 8.888-8.888 23.3 0 32.187l108.02 108.02.125.13c8.89 8.888 23.302 8.888 32.191 0v-.003L1197.4 847.24z" style="fill:#ffc107"/></g></svg>